<?xml version="1.0" encoding="UTF-8" standalone="no"?>
<!DOCTYPE svg PUBLIC "-//W3C//DTD SVG 1.1//EN" "http://www.w3.org/Graphics/SVG/1.1/DTD/svg11.dtd">
<svg width="100%" height="100%" viewBox="0 0 900 900" version="1.1" xmlns="http://www.w3.org/2000/svg" xmlns:xlink="http://www.w3.org/1999/xlink" xml:space="preserve" xmlns:serif="http://www.serif.com/" style="fill-rule:evenodd;clip-rule:evenodd;stroke-linejoin:round;stroke-miterlimit:2;">
    <g transform="matrix(1,0,0,1,0,-755.146)">
        <g id="Icon" transform="matrix(0.989303,0,0,1.19873,-3482.57,232.173)">
            <rect x="3520.22" y="436.273" width="909.731" height="750.796" style="fill:none;"/>
            <g transform="matrix(0.911553,0,0,0.752299,2999.94,29.449)">
                <g transform="matrix(4.16667,0,0,4.16667,634.349,476.234)">
                    <path d="M98.75,247.5C97.4,247 88.85,243.9 79.75,240.6L63.25,234.65L63.1,209.85C63.05,193.15 63.15,185 63.5,185C63.8,185 68.45,186.6 73.9,188.55C87.15,193.3 97.25,196.9 100.15,197.85L102.5,198.65L102.5,223.6C102.5,243.2 102.35,248.5 101.9,248.45C101.55,248.45 100.15,248 98.75,247.5Z" style="fill:white;fill-rule:nonzero;"/>
                </g>
                <g transform="matrix(4.16667,0,0,4.16667,634.349,476.234)">
                    <path d="M106.5,223.6L106.5,198.7L114.9,195.8C122.3,193.2 140.95,186.5 144.65,185.05L146,184.5L146,234.45L143.15,235.5C141.55,236.1 137.2,237.7 133.5,239C129.8,240.35 122.3,243 116.8,244.95C111.35,246.9 106.8,248.5 106.7,248.5C106.6,248.5 106.5,237.3 106.5,223.6Z" style="fill:rgb(0,31,63);fill-rule:nonzero;"/>
                </g>
                <g transform="matrix(4.16667,0,0,4.16667,634.349,476.234)">
                    <path d="M49.25,229.8C44.3,228.05 35.6,225 29.9,222.95L19.5,219.25L19.5,124.5L25.9,126.8C29.4,128.05 36.65,130.65 42,132.5C47.35,134.4 53.3,136.5 55.25,137.2C57.15,137.9 58.8,138.5 58.85,138.5C58.95,138.5 59,159.75 59,185.75C59,211.75 58.85,233 58.65,232.95C58.4,232.95 54.2,231.55 49.25,229.8Z" style="fill:white;fill-rule:nonzero;"/>
                </g>
                <g transform="matrix(4.16667,0,0,4.16667,634.349,476.234)">
                    <path d="M150,172.65L150,112.2L155.15,110.3C157.95,109.25 165.1,106.7 171,104.7C176.9,102.65 183.5,100.3 185.65,99.55L189.5,98.1L189.4,158.65L189.25,219.2L186,220.4C175.55,224.2 170.75,225.95 161.75,229.1C156.25,231 151.35,232.7 150.9,232.85C150.05,233.1 150,230 150,172.65Z" style="fill:rgb(0,31,63);fill-rule:nonzero;"/>
                </g>
                <g transform="matrix(4.16667,0,0,4.16667,634.349,476.234)">
                    <path d="M95,191.95C90.45,190.35 85.05,188.4 83,187.65C73.1,184.15 68.2,182.2 68.05,181.8C68,181.55 70.95,180.25 74.6,178.95C78.25,177.65 86.3,174.75 92.5,172.55C98.7,170.3 104.05,168.5 104.4,168.5C105,168.5 107.8,169.45 120.75,174C122.95,174.75 128.25,176.65 132.5,178.2C136.75,179.75 140.6,181.15 141,181.3C141.65,181.55 141.65,181.6 141,182C139.05,183.1 105.5,195 104.45,194.95C103.8,194.95 99.55,193.6 95,191.95Z" style="fill:rgb(255,133,27);fill-rule:nonzero;"/>
                </g>
                <g transform="matrix(4.16667,0,0,4.16667,634.349,476.234)">
                    <path d="M63,178.6L63,138.7L66.4,137.4C68.25,136.7 71.8,135.4 74.25,134.6C78.85,133 100.05,125.4 101.65,124.75C102.45,124.4 102.5,125.55 102.5,144.4C102.5,166.15 102.7,164.85 99.5,165.95C98.55,166.3 93.35,168.1 88,170C82.65,171.85 75.35,174.45 71.75,175.75C68.2,177.05 64.75,178.25 64.15,178.35L63,178.6Z" style="fill:rgb(192,192,192);fill-rule:nonzero;"/>
                </g>
                <g transform="matrix(4.16667,0,0,4.16667,634.349,476.234)">
                    <path d="M131,173.65C123.7,171.05 116.65,168.5 115.25,168C113.9,167.5 111.35,166.55 109.65,165.95L106.5,164.85L106.5,131.7C106.5,113.25 106.7,98.5 106.95,98.5C107.15,98.5 109.25,99.15 111.55,99.95C120.5,103.1 143.3,111.15 144.65,111.6L146,112.1L146,145.3C146,176.6 145.95,178.5 145.15,178.45C144.65,178.4 138.3,176.25 131,173.65Z" style="fill:white;fill-rule:nonzero;"/>
                </g>
                <g transform="matrix(4.16667,0,0,4.16667,634.349,476.234)">
                    <path d="M53,132.3C42.25,128.55 27.6,123.3 25.5,122.4L23.75,121.65L25,121.1C25.7,120.8 30.65,118.95 36,117.05C41.35,115.15 48.9,112.4 52.75,110.95C56.6,109.5 60.3,108.35 61,108.35C61.7,108.35 66.1,109.75 70.75,111.45C75.45,113.2 82.5,115.8 86.55,117.25C90.55,118.75 94.75,120.25 95.9,120.6C98.15,121.3 98.5,121.75 97.15,122.15C96.65,122.3 91.1,124.3 84.75,126.65C78.45,128.95 72.25,131.25 71,131.65C69.75,132.1 67.2,133 65.25,133.7C63.35,134.4 61.55,135 61.25,135C61,135 57.25,133.75 53,132.3Z" style="fill:rgb(255,133,27);fill-rule:nonzero;"/>
                </g>
                <g transform="matrix(4.16667,0,0,4.16667,634.349,476.234)">
                    <path d="M89.5,114.15C83.05,111.85 75.05,108.95 71.75,107.75C68.45,106.55 65.15,105.35 64.4,105.05L63,104.5L63,71.2C63,39.7 63.05,37.9 63.9,38.25C64.35,38.45 66.9,39.35 69.5,40.25C73.9,41.8 91.45,48.05 99,50.75L102.25,51.9L102.4,85.2C102.5,111.7 102.4,118.5 101.9,118.45C101.55,118.45 95.95,116.5 89.5,114.15Z" style="fill:white;fill-rule:nonzero;"/>
                </g>
                <g transform="matrix(4.16667,0,0,4.16667,634.349,476.234)">
                    <path d="M141.25,106.3C137.95,105.1 129.8,102.25 123.15,99.95C116.45,97.65 111,95.6 111,95.45C111,95.25 111.95,94.8 113.15,94.35C138.5,85.1 147.25,82 148.05,82C148.55,82 154.9,84.15 162.1,86.8C169.35,89.45 177.35,92.35 179.95,93.3C182.55,94.25 184.75,95.1 184.9,95.25C185.05,95.35 184.5,95.7 183.7,96C182.9,96.3 181.45,96.85 180.5,97.25C179.55,97.65 176.05,98.9 172.75,100C169.45,101.15 165.85,102.4 164.75,102.85C163.65,103.25 160.85,104.25 158.5,105C156.15,105.8 152.95,106.9 151.4,107.45C149.8,108.05 148.25,108.5 147.9,108.5C147.55,108.45 144.55,107.5 141.25,106.3Z" style="fill:rgb(255,133,27);fill-rule:nonzero;"/>
                </g>
                <g transform="matrix(4.16667,0,0,4.16667,634.349,476.234)">
                    <path d="M106.5,72.05L106.5,52.1L112.9,49.75C116.4,48.45 122.4,46.25 126.25,44.9C130.1,43.55 135.15,41.75 137.5,40.9C139.85,40.1 142.3,39.25 143,39C143.7,38.8 144.65,38.45 145.15,38.25C145.95,37.9 146,38.95 145.9,58.05L145.75,78.25L140.5,80.15C137.6,81.2 134.15,82.5 132.75,83C121.7,87.1 107.75,92 107.2,92C106.6,92 106.5,88.8 106.5,72.05Z" style="fill:rgb(192,192,192);fill-rule:nonzero;"/>
                </g>
                <g transform="matrix(4.16667,0,0,4.16667,634.349,476.234)">
                    <path d="M101.5,47.45C99.1,46.55 93.55,44.6 72.65,37.3C67.75,35.6 66.95,35.15 68.05,34.8C68.45,34.65 76.6,31.75 86.15,28.25C95.7,24.8 104,22 104.6,22C105.55,22 139.2,34 140.9,34.95C141.45,35.25 140.85,35.65 138.7,36.4C137.05,36.95 133.85,38.1 131.5,39C129.15,39.85 125.35,41.2 123,42C120.65,42.8 115.5,44.55 111.55,45.95C107.6,47.35 104.35,48.5 104.3,48.5C104.3,48.45 103,48 101.5,47.45Z" style="fill:rgb(255,133,27);fill-rule:nonzero;"/>
                </g>
            </g>
        </g>
    </g>
</svg>
