<?xml version="1.0" encoding="UTF-8" standalone="no"?>
<!DOCTYPE svg PUBLIC "-//W3C//DTD SVG 1.1//EN" "http://www.w3.org/Graphics/SVG/1.1/DTD/svg11.dtd">
<svg width="100%" height="100%" viewBox="0 0 500 500" version="1.1" xmlns="http://www.w3.org/2000/svg" xmlns:xlink="http://www.w3.org/1999/xlink" xml:space="preserve" xmlns:serif="http://www.serif.com/" style="fill-rule:evenodd;clip-rule:evenodd;stroke-linejoin:round;stroke-miterlimit:2;">
    <g transform="matrix(1,0,0,1,8.04615,18.1637)">
        <g transform="matrix(1.39661,0,0,1.39661,-9.94307e-06,0)">
            <path d="M108.841,115.914C138.412,49.778 216.193,20.065 282.272,49.693C293.027,54.474 302.722,60.663 311.483,67.786C311.175,67.364 259.818,5.075 259.818,5.075L262.087,28.5C260.931,27.931 259.912,27.505 258.742,26.969C186.945,-5.161 102.729,26.988 70.628,98.774C38.503,170.559 70.656,254.808 142.444,286.966C163.761,296.463 186.187,300.221 208.006,299.05C196.89,297.283 185.808,294.188 175.071,289.411C108.945,259.845 79.27,182.018 108.841,115.919L108.841,115.914Z" style="fill:rgb(6,6,6);fill-rule:nonzero;"/>
        </g>
        <g transform="matrix(1.39661,0,0,1.39661,-9.94307e-06,0)">
            <path d="M55.219,210.717C25.823,133.704 64.534,47.2 141.51,17.781C154.038,13.037 166.84,10.222 179.581,8.942C179.008,8.843 87.533,0 87.533,0L108.153,16.946C106.775,17.43 105.628,17.98 104.306,18.51C20.687,50.455 -21.217,144.087 10.699,227.701C42.629,311.3 136.284,353.216 219.889,321.304C244.717,311.817 265.778,296.79 282.404,278.275C272.046,285.805 260.618,292.255 248.114,297.012C171.124,326.422 84.61,287.691 55.223,210.726L55.219,210.717Z" style="fill:rgb(6,6,6);fill-rule:nonzero;"/>
        </g>
        <g transform="matrix(1.39661,0,0,1.39661,-9.94307e-06,0)">
            <path d="M189.825,92.911C244.167,65.956 310.293,88.291 337.225,142.637C341.627,151.461 344.583,160.659 346.431,169.914C346.441,169.526 346.488,101.863 346.488,101.863L335.51,118.146C335.107,117.184 334.576,116.412 334.117,115.426C304.835,56.341 233.284,32.22 174.284,61.525C115.237,90.736 91.077,162.356 120.345,221.365C129.049,238.937 141.524,253.319 156.255,264.257C150.025,257.12 144.509,249.249 140.122,240.382C113.176,185.998 135.464,119.881 189.825,92.921L189.825,92.911Z" style="fill:rgb(6,6,6);fill-rule:nonzero;"/>
        </g>
    </g>
</svg>
